<svg data-v-0dd9719b="" version="1.0" xmlns="http://www.w3.org/2000/svg" xmlns:xlink="http://www.w3.org/1999/xlink" width="100%" height="100%" viewBox="0 0 340.000000 250.000000" preserveAspectRatio="xMidYMid meet" color-interpolation-filters="sRGB" style="margin: auto;"> <rect data-v-0dd9719b="" x="0" y="0" width="100%" height="100%" fill="#fff" fill-opacity="1" class="background"></rect> <rect data-v-0dd9719b="" x="0" y="0" width="100%" height="100%" fill="url(#watermark)" fill-opacity="1" class="watermarklayer"></rect> <g data-v-0dd9719b="" fill="#333" class="icon-text-wrapper icon-svg-group iconsvg" transform="translate(49.019996643066406,94.81678772031336)"><g class="iconsvg-imagesvg" transform="translate(0,0)"><g><rect fill="#333" fill-opacity="0" stroke-width="2" x="0" y="0" width="60" height="60.366424194862816" class="image-rect"></rect> <svg x="0" y="0" width="60" height="60.366424194862816" filtersec="colorsb2080444526" class="image-svg-svg primary" style="overflow: visible;"><svg xmlns="http://www.w3.org/2000/svg" viewBox="0.009033550508320332 0.013148295693099499 95.22673034667969 95.8085708618164"><defs><linearGradient id="a8b9dc4c3-5a3a-40f1-a810-76b3c2d584dc" x1="-1406.56" y1="958.63" x2="-1394.89" y2="958.63" gradientTransform="matrix(0 -8.65 8.65 0 -8242.05 -12071.24)" gradientUnits="userSpaceOnUse"><stop offset="0" stop-color="#6d9d4d"></stop><stop offset="1" stop-color="#b2cd49"></stop></linearGradient></defs><path d="M10.67 78c-2.87-10.91.55-20.7 6.22-26.53 7.55-7.85 18.5-10.2 27.06-13.12 8.85-3 18.12-6.14 23.15-14.82 3.84-6.62 2.87-16-2.23-20.4A47.87 47.87 0 0 0 10.67 78z" fill="#36435c"></path><path d="M94.76 57.89c-8.92 9.52-23.91 8.39-36.7 5.35-9.69-2.32-20.15-6.31-29.28-1.14-4.34 2.45-8 6.59-8.2 13.93-.13 4.41 1.27 9.53 7 15.23a47.83 47.83 0 0 0 67.18-33.37z" fill="#36435c"></path><path d="M47.1 42.73c8.62 1.4 21.26 1.9 29.44-2.19 8-4 12.3-12.37 6.8-24.46 9.41 10.86 8.64 24.2-2.83 30.6-12.29 6.87-29.32-.9-39.68-1.37-7.39 1.77-15.44 4.18-20.43 9.55-7 7.52-12.56 24.2 1.05 32.92-8.33-8-5.61-22.37 3-28.86 10.71-8.09 22.9-4 34.71-1.54 6.23 1.28 14.44 2.86 20.77 1.66 14.94-2.86 17.3-16 14-28.75C91.72 21.76 83.74 11.87 73 7.19c7.16 14.3-2.12 32.07-25.9 35.54z" fill="url(#a8b9dc4c3-5a3a-40f1-a810-76b3c2d584dc)"></path></svg></svg> <!----></g></g> <g transform="translate(67,4.551963806152344)"><g data-gra="path-name" fill-rule="" class="tp-name iconsvg-namesvg" transform="translate(0,0)"><g transform="scale(1)"><g><path d="M26.91 4.5L14.17 4.5 14.17-7.15Q12.73-6.17 11.65-5.58 10.57-5 10.48-4.91L10.48-4.91 9.67-6.48 8.87-8.05Q9.36-8.32 10.19-8.8 11.03-9.27 11.99-9.92 12.96-10.57 13.9-11.32 14.85-12.06 15.57-12.82L15.57-12.82 8.41-12.82 8.41 6.66 4.86 6.66 4.86-16.38 13.54-16.38 10.13-19.89 11.74-21.42 3.06-21.42 3.06-24.97 20.79-24.97Q20.43-25.47 20.05-26.01 19.66-26.55 18.9-27.63L18.9-27.63 21.82-29.65Q22.36-28.84 22.7-28.37 23.04-27.9 23.31-27.54 23.58-27.18 23.83-26.84 24.07-26.5 24.48-26.01L24.48-26.01 24.79-25.61 23.98-24.97 42.03-24.97 42.03-21.42 33.75-21.42 35.19-19.84 31.36-16.38 37.3-16.38 37.3-17.37 40.81-17.37 40.81 2.48Q40.81 4.14 39.64 5.33 38.48 6.52 36.77 6.52L36.77 6.52 30.96 6.52 30.96 2.97 36.77 2.97Q37.3 2.97 37.3 2.48L37.3 2.48 37.3-12.82 29.79-12.82 36.36-7.69 34.2-4.91 30.96-7.42 30.96 0.45Q30.96 2.16 29.79 3.33 28.62 4.5 26.91 4.5L26.91 4.5ZM27.45 0.45L27.45-4 17.73-4 17.73 0.99 26.91 0.99Q27.13 0.99 27.29 0.83 27.45 0.67 27.45 0.45L27.45 0.45ZM13.54-21.42L17.37-17.5 16.2-16.38 27.99-16.38 27.13-17.28 31.63-21.42 13.54-21.42ZM16.83-12.82L18.86-11.29Q18.09-10.26 16.99-9.29 15.88-8.32 14.76-7.51L14.76-7.51 27.45-7.51 27.45-8.19 29.97-8.19 26.32-11.03 27.77-12.82 16.83-12.82ZM52.56-27.27L82.39-27.27 82.39-23.76 52.56-23.76 52.56-27.27ZM86.98-13.14L67.55-13.14 54.13 2.16 77.98-0.4 74.7-5.17 77.63-7.15 85.77 4.63 82.84 6.66 80.28 2.88 49.63 6.21 49.63 1.89 62.82-13.14 48.02-13.14 48.02-16.7 86.98-16.7 86.98-13.14ZM93.69 6.3L93.69-27.18 127.89-27.18 127.89-28.17 131.4-28.17 131.4 2.43Q131.4 4.14 130.23 5.31 129.06 6.48 127.35 6.48L127.35 6.48 122.81 6.48 122.81 2.92 127.35 2.92Q127.57 2.92 127.73 2.79 127.89 2.65 127.89 2.43L127.89 2.43 127.89-23.67 97.2-23.67 97.2 6.3 93.69 6.3ZM100.71 1.13L97.88-0.99Q99.45-3.15 100.87-5.42 102.28-7.69 103.5-9.95L103.5-9.95 98.19-19.98 101.3-21.64 105.44-13.81Q106.25-15.48 106.88-16.92 107.5-18.36 107.93-19.42 108.36-20.47 108.61-21.08 108.86-21.69 108.86-21.69L108.86-21.69 112.19-20.47Q112.14-20.34 111.8-19.48 111.47-18.63 110.86-17.21 110.25-15.79 109.39-13.93 108.54-12.06 107.46-9.95L107.46-9.95 112.5-0.45 109.35 1.21 105.44-6.21Q104.4-4.32 103.21-2.48 102.02-0.63 100.71 1.13L100.71 1.13ZM115.56 1.13L112.72-0.99Q114.3-3.15 115.72-5.42 117.13-7.69 118.31-9.95L118.31-9.95 113-19.98 116.14-21.64 120.28-13.81Q121.09-15.48 121.7-16.92 122.31-18.36 122.76-19.42 123.21-20.47 123.44-21.08 123.66-21.69 123.66-21.69L123.66-21.69 126.99-20.47Q126.94-20.34 126.63-19.48 126.31-18.63 125.71-17.21 125.1-15.79 124.25-13.93 123.39-12.06 122.31-9.95L122.31-9.95 127.31-0.45 124.2 1.21 120.28-6.21Q118.13-2.43 115.56 1.13L115.56 1.13ZM171.59-21.82L157-21.82Q156.38-20.93 155.66-19.93 154.94-18.95 154.03-17.95L154.03-17.95 151.43-20.34Q152.73-21.78 153.68-23.22 154.62-24.66 155.23-25.81 155.84-26.95 156.13-27.7 156.42-28.44 156.42-28.44L156.42-28.44 159.75-27.27Q159.75-27.22 159.55-26.71 159.34-26.19 158.94-25.38L158.94-25.38 171.59-25.38 171.59-26.23 175.09-26.23 175.09-19.3 174.56-18.77Q174.42-18.68 172.94-17.46 171.45-16.25 168.39-14.54L168.39-14.54 178.02-11.29 176.89-7.96 163.98-12.29Q161.37-11.07 158.11-9.92 154.84-8.78 150.88-7.79L150.88-7.79 150.03-11.21Q152.55-11.83 154.73-12.53 156.91-13.23 158.85-13.95L158.85-13.95 154.49-15.43 155.61-18.77 163.71-16.06Q166.91-17.64 168.84-18.95 170.78-20.25 171.59-20.88L171.59-20.88 171.59-21.82ZM174.51-8.32L174.51 2.11Q174.51 3.82 173.34 5 172.17 6.17 170.46 6.17L170.46 6.17 154.4 6.17 154.4-7.38 171-7.38 171-8.32 174.51-8.32ZM157.95-3.82L157.95 2.61 170.46 2.61Q171 2.61 171 2.11L171 2.11 171-3.82 157.95-3.82ZM150.79-6.17L150.79-2.61 138.38-2.61 138.38-5.58 144.72-14.4 138.38-14.4 138.38-17.46 145.75-28.57 148.68-26.59 142.92-17.95 147.24-17.95 149-20.38 151.88-18.31 143.15-6.17 150.79-6.17ZM151.74 2.48L138.87 6.12 137.93 2.7 150.75-0.9 151.74 2.48Z" transform="translate(-3.059999942779541, 29.649999618530273)"></path></g> <!----> <!----> <!----> <!----> <!----> <!----> <!----></g></g> <g data-gra="path-slogan" fill-rule="" class="tp-slogan iconsvg-slogansvg" fill="#333" transform="translate(5,42.30999755859375)"><rect x="0" height="1" y="3.9750003814697266" width="13.689178466796875"></rect> <rect height="1" y="3.9750003814697266" width="13.689178466796875" x="151.2708282470703"></rect> <g transform="translate(16.689178466796875,0)"><g transform="scale(1)"><path d="M7.17-6.09L7.17-6.09L6.09-6.09Q6-7.73 3.94-7.83L3.94-7.83Q2.02-7.78 2.02-6.33L2.02-6.33Q2.02-5.39 3.05-5.25L3.05-5.25L5.48-4.69Q7.41-4.22 7.41-2.34L7.41-2.34Q7.36 0.05 4.03 0.14L4.03 0.14Q2.20 0.14 1.45-0.61L1.45-0.61Q0.52-1.31 0.56-2.77L0.56-2.77L1.69-2.77Q1.73-0.80 4.03-0.75L4.03-0.75Q6.28-0.80 6.33-2.20L6.33-2.20Q6.52-3.38 4.45-3.75L4.45-3.75L2.67-4.13Q0.84-4.64 0.84-6.19L0.84-6.19Q0.98-8.72 3.84-8.81L3.84-8.81Q7.08-8.81 7.17-6.09ZM10.03-5.06L14.53-5.06L14.53-8.58L15.70-8.58L15.70 0L14.53 0L14.53-3.98L10.03-3.98L10.03 0L8.86 0L8.86-8.58L10.03-8.58L10.03-5.06ZM23.16 0L22.31-2.48L18.84-2.48L17.95 0L16.78 0L20.02-8.58L21.33-8.58L24.42 0L23.16 0ZM20.58-7.31L19.22-3.52L21.89-3.52L20.63-7.31L20.58-7.31ZM26.86-8.58L31.17-1.64L31.17-8.58L32.30-8.58L32.30 0L30.98 0L26.63-6.94L26.58-6.94L26.58 0L25.45 0L25.45-8.58L26.86-8.58ZM40.50-3.61L37.88-3.61L37.88-4.59L41.63-4.59L41.63 0L40.88 0L40.59-1.08Q39.61 0.09 37.78 0.14L37.78 0.14Q36.05 0.14 35.11-0.75L35.11-0.75Q33.70-2.06 33.75-4.36L33.75-4.36Q34.08-8.63 37.83-8.81L37.83-8.81Q41.02-8.63 41.48-6L41.48-6L40.36-6Q39.89-7.78 37.78-7.83L37.78-7.83Q35.11-7.64 34.97-4.31L34.97-4.31Q34.97-0.75 37.83-0.75L37.83-0.75Q38.86-0.75 39.61-1.31L39.61-1.31Q40.55-2.06 40.50-3.61L40.50-3.61ZM50.34-8.58L47.11-3.47L47.11 0L45.94 0L45.94-3.47L42.70-8.58L44.06-8.58L46.50-4.45L48.98-8.58L50.34-8.58ZM57.05-3.19L57.05-8.58L58.22-8.58L58.22-3.05Q58.08 0.05 54.70 0.14L54.70 0.14Q51.56 0.05 51.42-2.86L51.42-2.86L51.42-8.58L52.59-8.58L52.59-3.19Q52.64-0.84 54.75-0.80L54.75-0.80Q57.05-0.84 57.05-3.19L57.05-3.19ZM61.41-8.58L65.72-1.64L65.72-8.58L66.84-8.58L66.84 0L65.53 0L61.17-6.94L61.13-6.94L61.13 0L60 0L60-8.58L61.41-8.58ZM73.36-8.58L77.67-1.64L77.67-8.58L78.80-8.58L78.80 0L77.48 0L73.13-6.94L73.08-6.94L73.08 0L71.95 0L71.95-8.58L73.36-8.58ZM81.89-1.03L87.05-1.03L87.05 0L80.72 0L80.72-8.58L86.95-8.58L86.95-7.59L81.89-7.59L81.89-4.92L86.58-4.92L86.58-3.89L81.89-3.89L81.89-1.03ZM90.75-7.59L87.84-7.59L87.84-8.58L94.78-8.58L94.78-7.59L91.88-7.59L91.88 0L90.75 0L90.75-7.59ZM100.59-7.13L100.55-7.13L98.58 0L97.36 0L95.11-8.58L96.33-8.58L97.97-1.59L98.02-1.59L99.94-8.58L101.20-8.58L103.13-1.59L103.17-1.59L104.77-8.58L106.03-8.58L103.78 0L102.56 0L100.59-7.13ZM113.91-4.27L113.91-4.27Q113.72-7.64 110.91-7.83L110.91-7.83Q108.05-7.69 107.91-4.27L107.91-4.27Q108.05-0.94 110.91-0.80L110.91-0.80Q113.72-0.98 113.91-4.27ZM115.08-4.27L115.08-4.27Q114.80 0 110.91 0.14L110.91 0.14Q106.97 0 106.69-4.27L106.69-4.27Q106.92-8.72 110.91-8.81L110.91-8.81Q114.80-8.67 115.08-4.27ZM120.56-3.70L117.75-3.70L117.75 0L116.58 0L116.58-8.58L120.56-8.58Q123.42-8.58 123.42-6.28L123.42-6.28Q123.42-4.88 122.20-4.22L122.20-4.22Q123.23-3.94 123.23-2.58L123.23-2.58L123.33-1.03Q123.28-0.38 123.75-0.19L123.75-0.19L123.75 0L122.30 0Q122.16-0.61 122.11-2.16L122.11-2.16Q122.16-3.70 120.56-3.70L120.56-3.70ZM120.66-7.64L117.75-7.64L117.75-4.69L120.47-4.69Q122.20-4.69 122.20-6.19L122.20-6.19Q122.20-7.64 120.66-7.64L120.66-7.64ZM127.59-4.31L126.23-3.05L126.23 0L125.06 0L125.06-8.58L126.23-8.58L126.23-4.41L130.41-8.58L132.05-8.58L128.44-5.11L132.14 0L130.59 0L127.59-4.31Z" transform="translate(-0.5602678571428572, 8.8125)"></path></g></g></g></g></g><defs v-gra="od"></defs></svg>